<svg xmlns="http://www.w3.org/2000/svg" viewBox="0 0 32 32"><defs><style>.cls-1{fill:#d1e6e9;}.cls-2{fill:#30acc2;}.cls-3{fill:#68c7d3;}.cls-4{fill:#a1d8df;}</style></defs><title>Stethoscope</title><g id="Stethoscope"><path class="cls-1" d="M24,31H12a4,4,0,0,1-4-4V22h2v5a2,2,0,0,0,2,2H24a2,2,0,0,0,2-2V20h2v7A4,4,0,0,1,24,31Z"/><path class="cls-1" d="M6,3H4A1,1,0,0,0,3,4v6H1V4A3,3,0,0,1,4,1H6A1,1,0,0,1,6,3Z"/><path class="cls-1" d="M17,10H15V4a1,1,0,0,0-1-1H12a1,1,0,0,1,0-2h2a3,3,0,0,1,3,3Z"/><path class="cls-2" d="M6,3H5V1H6A1,1,0,0,1,6,3Z"/><path class="cls-2" d="M12,3h1V1H12A1,1,0,0,0,12,3Z"/><path class="cls-3" d="M17,10c0,2.83-.62,3.36-3.27,8A4,4,0,0,1,10,20v2H8V20a4,4,0,0,1-3.73-2C1.59,13.3,1,12.82,1,10H3c0,2.17.27,2.21,3,7a2,2,0,0,0,1.74,1h2.52A2,2,0,0,0,12,17c2.7-4.73,3-4.81,3-7Z"/><circle class="cls-4" cx="27" cy="17" r="4"/><circle class="cls-2" cx="27" cy="17" r="2"/><path class="cls-1" d="M18.62,30.78a1,1,0,0,1-1.24,0l-3.78-3C10.72,25.45,12,21,15.43,21a5.38,5.38,0,0,1,2.57.88A5.38,5.38,0,0,1,20.57,21c3.44,0,4.73,4.44,1.83,6.76ZM15.43,23c-1.58,0-1.95,2.1-.58,3.2L18,28.72l3.15-2.52c1.36-1.09,1-3.2-.58-3.2-.46,0-.55.11-2.57,1.12C16,23.1,15.88,23,15.43,23Z"/></g></svg>